<svg width="90" height="90" viewBox="0 0 90 90" fill="none" xmlns="http://www.w3.org/2000/svg">
<path fill-rule="evenodd" clip-rule="evenodd" d="M3.03576 26.4507C5.3719 20.8982 8.72405 17.6707 9.62921 16.7578C10.5344 15.8455 11.8194 16.2906 12.68 16.7578C13.5406 17.2256 35.1129 38.7001 36.076 39.7785C37.0385 40.8569 38.059 42.4656 35.2956 42.4656C32.5317 42.4656 5.37914 42.2298 3.03576 42.0693C0.691817 41.9082 0 40.5497 0 39.3893C0 38.229 0.699059 32.0038 3.03576 26.4507V26.4507ZM29.1333 2.56148C34.7363 0.276796 38.7307 0.426819 40.0202 0.417962C41.3097 0.409104 41.9013 1.62646 42.1776 2.56148C42.4533 3.49705 42.6538 34.025 42.5675 35.4638C42.4806 36.9031 42.5045 38.4991 40.5505 36.5566C38.5959 34.6146 19.5637 15.3661 18.0213 13.6057C16.4783 11.8447 16.9557 10.3976 17.7818 9.57718C18.6073 8.75675 23.5302 4.84672 29.1338 2.56148H29.1333ZM63.3856 3.01709C68.9725 5.33886 72.2199 8.67039 73.1384 9.56998C74.0564 10.4696 73.6086 11.7467 73.1384 12.602C72.6678 13.4573 51.0604 34.8969 49.9753 35.8541C48.8902 36.8107 47.2715 37.8249 47.2715 35.0785C47.2715 32.3316 47.5088 5.34606 47.6704 3.01709C47.8325 0.687562 49.1994 0 50.3669 0C51.5344 0 57.7981 0.694759 63.3856 3.01709V3.01709ZM87.4227 28.9541C89.7215 34.5227 89.5705 38.4925 89.5794 39.7741C89.5884 41.0556 88.3635 41.6436 87.4227 41.9181C86.4813 42.1922 55.7644 42.3915 54.3167 42.3057C52.8685 42.2193 51.2626 42.2431 53.2172 40.3011C55.1712 38.3585 74.5388 19.4433 76.3101 17.9104C78.082 16.377 79.538 16.8514 80.3635 17.6724C81.1891 18.4928 85.1233 23.3855 87.4227 28.9546V28.9541ZM86.9642 63.5493C84.6281 69.1018 81.2759 72.3293 80.3708 73.2422C79.4656 74.1545 78.1806 73.7094 77.32 73.2422C76.4594 72.7744 54.8871 51.2999 53.924 50.2215C52.9615 49.1431 51.941 47.5344 54.7044 47.5344C57.4683 47.5344 84.6209 47.7702 86.9642 47.9307C89.3082 48.0918 90 49.4503 90 50.6107C90 51.771 89.3009 57.9962 86.9642 63.5493ZM60.8667 87.4385C55.2637 89.7232 51.2693 89.5732 49.9798 89.582C48.6903 89.5909 48.0987 88.3735 47.8224 87.4385C47.5467 86.5029 47.3462 55.975 47.4325 54.5362C47.5194 53.0969 47.4955 51.5009 49.4495 53.4434C51.4041 55.3854 70.4363 74.6339 71.9787 76.3943C73.5217 78.1553 73.0443 79.6024 72.2182 80.4228C71.3927 81.2432 66.4698 85.1533 60.8662 87.4385H60.8667ZM26.6144 86.9829C21.0275 84.6611 17.7801 81.3296 16.8616 80.43C15.9436 79.5304 16.3914 78.2533 16.8616 77.398C17.3322 76.5427 38.9396 55.1031 40.0247 54.1459C41.1098 53.1893 42.7285 52.1751 42.7285 54.9215C42.7285 57.6684 42.4912 84.6539 42.3296 86.9829C42.1675 89.3124 40.8006 90 39.6331 90C38.4656 90 32.2019 89.3052 26.6144 86.9829V86.9829ZM2.57733 61.0459C0.27851 55.4773 0.429461 51.5075 0.420549 50.2259C0.411636 48.9444 1.63653 48.3564 2.57733 48.0819C3.5187 47.8078 34.2356 47.6085 35.6833 47.6943C37.1315 47.7807 38.7374 47.7569 36.7828 49.6989C34.8288 51.6415 15.4612 70.5567 13.6899 72.0896C11.918 73.623 10.462 73.1486 9.63645 72.3276C8.81095 71.5072 4.87671 66.6145 2.57733 61.0454V61.0459Z" fill="black"/>
</svg>
